<svg xmlns="http://www.w3.org/2000/svg" viewBox="0 0 33.75 33.6">
  <defs>
    <style>
      .cls-1 {
        fill: #324c5e;
      }
    </style>
  </defs>
  <title>cart</title>
  <g id="Layer_2" data-name="Layer 2">
    <g id="Isolation_Mode" data-name="Isolation Mode">
      <path class="cls-1" d="M25.18,30.21h-.09a1,1,0,0,1-.9-1.09L25,19.76a1,1,0,1,1,2,.18l-.86,9.35A1,1,0,0,1,25.18,30.21Zm-16.62,0a1,1,0,0,1-1-.91l-.86-9.35a1,1,0,1,1,2-.18l.86,9.35a1,1,0,0,1-.9,1.09Zm4.15,0a1,1,0,0,1-1-1l-.43-9.35a1,1,0,0,1,1-1,1,1,0,0,1,1,1l.43,9.35a1,1,0,0,1-1,1Zm8.31,0h0a1,1,0,0,1-1-1l.43-9.35a1,1,0,1,1,2,.09L22,29.25A1,1,0,0,1,21,30.21Zm-4.15,0a1,1,0,0,1-1-1V19.86a1,1,0,0,1,2,0v9.35A1,1,0,0,1,16.87,30.21ZM31.61,17.64H2.13A2.14,2.14,0,0,1,0,15.51V12.94A2.14,2.14,0,0,1,2.13,10.8H31.61a2.14,2.14,0,0,1,2.13,2.13v2.57A2.14,2.14,0,0,1,31.61,17.64ZM2.13,12.8a.14.14,0,0,0-.13.13v2.57a.14.14,0,0,0,.13.13H31.61a.14.14,0,0,0,.13-.13V12.94a.14.14,0,0,0-.13-.13Z"/>
      <path class="cls-1" d="M26.52,33.6H7.23a4.16,4.16,0,0,1-4.09-4L2.3,16.71l2-.13.84,12.86A2.18,2.18,0,0,0,7.23,31.6H26.52a2.18,2.18,0,0,0,2.09-2.16l.84-12.86,2,.13L30.6,29.57A4.16,4.16,0,0,1,26.52,33.6Z"/>
      <path class="cls-1" d="M26,14.92a1,1,0,0,1-.9-.57L19,1.43A1,1,0,1,1,20.8.57L26.94,13.5a1,1,0,0,1-.9,1.43Zm-18.32,0a1,1,0,0,1-.9-1.43L12.94.57a1,1,0,0,1,1.81.86L8.62,14.35A1,1,0,0,1,7.72,14.92Z"/>
    </g>
  </g>
</svg>
