<svg id="Layer_3" data-name="Layer 3" xmlns="http://www.w3.org/2000/svg" width="22.832" height="22.833" viewBox="0 0 22.832 22.833">
  <title>clock</title>
  <g>
    <path d="M281.38,765.049a.7.7,0,0,0-.962.261l-.267.465a.705.705,0,0,0,.611,1.056.707.707,0,0,0,.612-.354l.267-.465a.7.7,0,0,0-.262-.962Z" transform="translate(-273.758 -747.069)"/>
    <path d="M290.2,765.771l-.271-.465a.705.705,0,0,0-1.22.709l.271.465a.705.705,0,0,0,1.22-.709Z" transform="translate(-273.758 -747.069)"/>
    <path d="M285.176,766.063a.706.706,0,0,0-.705.7l0,.537a.705.705,0,0,0,.7.709h0a.706.706,0,0,0,.705-.7l0-.536A.726.726,0,0,0,285.176,766.063Z" transform="translate(-273.758 -747.069)"/>
  </g>
  <g>
    <path d="M285.176,747.069a11.417,11.417,0,1,0,11.414,11.417A11.431,11.431,0,0,0,285.176,747.069Zm0,21.333a9.917,9.917,0,1,1,9.914-9.916A9.928,9.928,0,0,1,285.176,768.4Z" transform="translate(-273.758 -747.069)"/>
    <path d="M285.353,750.87a.7.7,0,0,0,.526-.669v-.533a.705.705,0,1,0-1.41,0v.533a.7.7,0,0,0,.528.669.741.741,0,0,0-.571.714v6.591l-2.8,2.8a.75.75,0,1,0,1.061,1.061l2.9-2.9a.7.7,0,0,0,.046-.069.737.737,0,0,0,.293-.579v-6.9A.741.741,0,0,0,285.353,750.87Z" transform="translate(-273.758 -747.069)"/>
    <path d="M289.937,750.239a.7.7,0,0,0-.964.256l-.269.464a.705.705,0,0,0,1.221.707l.269-.464a.7.7,0,0,0-.256-.963Z" transform="translate(-273.758 -747.069)"/>
    <path d="M293.163,762.283l-.462-.267a.706.706,0,0,0-.7,1.224l.462.266a.705.705,0,0,0,.7-1.223Z" transform="translate(-273.758 -747.069)"/>
    <path d="M278.353,753.731l-.467-.268a.705.705,0,0,0-.7,1.226l.467.268a.705.705,0,0,0,.7-1.226Z" transform="translate(-273.758 -747.069)"/>
    <path d="M281.714,751.5a.7.7,0,0,0-.069-.535l-.267-.463a.708.708,0,0,0-.963-.261.706.706,0,0,0-.26.963l.267.463a.7.7,0,0,0,.963.261A.7.7,0,0,0,281.714,751.5Z" transform="translate(-273.758 -747.069)"/>
    <path d="M278.185,761.946a.7.7,0,0,0-.532.07l-.466.266a.705.705,0,0,0,.7,1.225l.466-.266a.706.706,0,0,0-.167-1.295Z" transform="translate(-273.758 -747.069)"/>
    <path d="M292.35,755.049a.712.712,0,0,0,.353-.094l.461-.267a.706.706,0,0,0,.258-.964.71.71,0,0,0-.964-.259l-.461.267a.706.706,0,0,0,.354,1.316Z" transform="translate(-273.758 -747.069)"/>
    <path d="M277.6,758.486a.7.7,0,0,0-.7-.706h-.537a.705.705,0,1,0,0,1.41h.537A.706.706,0,0,0,277.6,758.486Z" transform="translate(-273.758 -747.069)"/>
    <path d="M293.994,757.778l-.538,0a.705.705,0,0,0,0,1.41h0l.538,0a.705.705,0,1,0,0-1.41Z" transform="translate(-273.758 -747.069)"/>
  </g>
</svg>
