<svg xmlns="http://www.w3.org/2000/svg" viewBox="0 0 23.24 23.79">
  <defs>
    <style>
      .cls-1 {
        fill: #35424b;
      }
    </style>
  </defs>
  <title>cool</title>
  <g id="Layer_2" data-name="Layer 2">
    <g id="Layer_3" data-name="Layer 3">
      <path class="cls-1" d="M23.24,10.51A3.12,3.12,0,0,0,20.12,7.4h-.42a12.54,12.54,0,0,1-4-.43c0-.25,0-.51,0-.77s0-.32.07-.47.08-.54.1-.78a5.82,5.82,0,0,0-1-4.33A1.75,1.75,0,0,0,13.55,0a3,3,0,0,0-2,.72,1.31,1.31,0,0,0-.33,1A10,10,0,0,1,11,5.07a21.9,21.9,0,0,1-3.4,4.06l0-.13a.8.8,0,0,0-1-.54l-6,1.77a.8.8,0,0,0-.54,1l3.53,12a.81.81,0,0,0,.77.57.82.82,0,0,0,.23,0l6-1.77a.8.8,0,0,0,.54-1l-.72-2.43c.24,0,.5,0,.78,0,.43,0,.91,0,1.46.07l1.56.13c1.05.09,2,.17,2.58.24a6.35,6.35,0,0,0,.78.05c1.38,0,2.33-.49,2.67-1.38,0-.09.06-.18.08-.27a2.73,2.73,0,0,0,1.4-2.22s0-.08,0-.12a2.7,2.7,0,0,0,.93-1.89,2.61,2.61,0,0,0-.06-.74A3,3,0,0,0,23.24,10.51Zm-2.1,1.11a.8.8,0,0,0-.2.91,1.1,1.1,0,0,1,.1.52,1.12,1.12,0,0,1-.57.91.8.8,0,0,0-.38.83,1,1,0,0,1,0,.26,1.16,1.16,0,0,1-.78,1,.8.8,0,0,0-.53.67,1.64,1.64,0,0,1-.08.36c-.07.2-.56.34-1.17.34a4.68,4.68,0,0,1-.58,0c-.6-.08-1.53-.16-2.64-.25L12.77,17c-.57-.05-1.09-.08-1.56-.08A11.13,11.13,0,0,0,9.94,17L8.12,10.84a23.67,23.67,0,0,0,4.37-5.16,11.11,11.11,0,0,0,.33-3.94,2.41,2.41,0,0,1,.71-.14.46.46,0,0,1,.14.11,4.42,4.42,0,0,1,.59,3.12c0,.21-.05.44-.1.76,0,.14,0,.28-.06.45,0,.4,0,.75,0,1.06a1.23,1.23,0,0,0,.37.9c.65.67,2.42,1,5.28,1h.44a1.51,1.51,0,0,1,1.5,1.51A1.49,1.49,0,0,1,21.14,11.62ZM6.27,10.21l.1.35a.64.64,0,0,0,0,.27l2.15,7.31a.77.77,0,0,0,.14.26l.67,2.27L4.88,22,1.79,11.54Z"/>
    </g>
  </g>
</svg>
