<svg xmlns="http://www.w3.org/2000/svg" viewBox="0 0 36.18 33.23">
  <defs>
    <style>
      .cls-1 {
        fill: #334d5e;
      }
    </style>
  </defs>
  <title>delivery</title>
  <g id="Layer_2" data-name="Layer 2">
    <g id="Isolation_Mode" data-name="Isolation Mode">
      <path class="cls-1" d="M13.33,33.23a3.85,3.85,0,1,1,.93-.11A3.85,3.85,0,0,1,13.33,33.23Zm0-5.67A1.83,1.83,0,1,0,15.12,29,1.84,1.84,0,0,0,13.34,27.56Zm6.18,1.39a1,1,0,0,1-.24-2l14.81-3.66a1,1,0,1,1,.48,1.94L19.76,28.92ZM17.6,25.54a3.28,3.28,0,0,1-3.17-2.48L10.22,6a1,1,0,0,1,.73-1.21L30.19.05A1,1,0,0,1,31.4.79L36.15,20a1,1,0,0,1-.73,1.21l-17,4.21A3.26,3.26,0,0,1,17.6,25.54Zm-5.2-19,4,16.07a1.27,1.27,0,0,0,1.53.93l16.07-4L29.7,2.24Zm-.7,17.76a1,1,0,0,1-1-.76L5.32,2H1A1,1,0,0,1,1,0H6.11a1,1,0,0,1,1,.76L12.67,23a1,1,0,0,1-1,1.24ZM24,18.17a1,1,0,0,1-1-.76l-1.38-5.57-1.44,2.42a1,1,0,0,1-1.72-1l2.69-4.51a1,1,0,0,1,.3-.31l.11-.07h0l.21-.08.1,0a1,1,0,0,1,.69.15L27,11.13a1,1,0,1,1-1,1.71l-2.4-1.47L25,16.93a1,1,0,0,1-.73,1.21Z"/>
    </g>
  </g>
</svg>
