<svg xmlns="http://www.w3.org/2000/svg" viewBox="0 0 19.19 23.29">
  <title>enter</title>
  <g id="Layer_2" data-name="Layer 2">
    <g id="Isolation_Mode" data-name="Isolation Mode">
      <g>
        <path d="M7.8,17.66a1,1,0,1,0,1.62,1.18l4.8-6.6a1,1,0,0,0,.07-.13l.05-.1a1,1,0,0,0,0-.71l-.05-.1a1,1,0,0,0-.07-.13l-4.8-6.6A1,1,0,1,0,7.8,5.64l3.65,5H1a1,1,0,0,0,0,2H11.44Z"/>
        <path d="M18.19,0A1,1,0,0,0,18,0a.77.77,0,0,0-.18,0H7.59A.94.94,0,0,0,6.7,1a.94.94,0,0,0,.88,1h9.61V21.29H7.59a1,1,0,0,0,0,2H17.81a.77.77,0,0,0,.18,0,1,1,0,0,0,.2,0,1,1,0,0,0,1-1V1A1,1,0,0,0,18.19,0Z"/>
      </g>
    </g>
  </g>
</svg>
