<svg id="Layer_3" data-name="Layer 3" xmlns="http://www.w3.org/2000/svg" width="22.527" height="16.25" viewBox="0 0 22.527 16.25">
  <title>eye</title>
  <g>
    <path d="M11.263,1.5A10.207,10.207,0,0,0,1.542,8.125a10.206,10.206,0,0,0,9.722,6.625,10.206,10.206,0,0,0,9.722-6.625A10.207,10.207,0,0,0,11.263,1.5Zm0,11.793A5.174,5.174,0,0,1,6.1,8.125a.75.75,0,0,1,1.5,0,3.667,3.667,0,1,0,3.668-3.666.75.75,0,0,1,0-1.5,5.167,5.167,0,0,1,0,10.334Z" style="fill: none"/>
    <path d="M22.49,7.893A11.663,11.663,0,0,0,11.263,0,11.664,11.664,0,0,0,.036,7.894a.76.76,0,0,0,0,.464A11.661,11.661,0,0,0,11.263,16.25,11.663,11.663,0,0,0,22.491,8.356.76.76,0,0,0,22.49,7.893ZM11.263,14.75A10.206,10.206,0,0,1,1.542,8.125,10.207,10.207,0,0,1,11.263,1.5a10.207,10.207,0,0,1,9.722,6.625A10.206,10.206,0,0,1,11.263,14.75Z"/>
    <path d="M11.263,2.959a.75.75,0,0,0,0,1.5A3.667,3.667,0,1,1,7.6,8.125a.75.75,0,0,0-1.5,0,5.167,5.167,0,1,0,5.168-5.166Z"/>
  </g>
</svg>
