<svg id="Layer_3" data-name="Layer 3" xmlns="http://www.w3.org/2000/svg" width="20.503" height="24.25" viewBox="0 0 20.503 24.25">
  <title>geo</title>
  <path d="M102.27,833.138a1,1,0,0,1-.647-.238c-.393-.334-9.6-8.243-9.6-13.761a10.251,10.251,0,0,1,20.5,0c0,5.519-9.21,13.427-9.6,13.761A1,1,0,0,1,102.27,833.138Zm-4.986-5.986a47.574,47.574,0,0,0,4.862,4.881l-.209-.187A52.977,52.977,0,0,1,97.284,827.151Zm10.076-.123a52.836,52.836,0,0,1-4.758,4.817l-.207.185A47.422,47.422,0,0,0,107.36,827.028Zm-5.09-16.141a8.261,8.261,0,0,0-8.252,8.251c0,3.851,6.285,9.871,8.252,11.661,1.966-1.79,8.251-7.812,8.251-11.661A8.26,8.26,0,0,0,102.27,810.888Zm9.73,8.251v0Zm-19,0v0Z" transform="translate(-92.018 -808.888)"/>
  <path d="M102.27,824.139a5,5,0,1,1,5-5A5.006,5.006,0,0,1,102.27,824.139Zm-4-5a4,4,0,0,0,8,0,4,4,0,0,1-8,0Zm4-3a3,3,0,1,0,3,3A3,3,0,0,0,102.27,816.139Z" transform="translate(-92.018 -808.888)"/>
</svg>
