<svg xmlns="http://www.w3.org/2000/svg" viewBox="0 0 13.43 12.44">
  <defs>
    <style>
      .cls-1 {
        fill: #324c5e;
      }
    </style>
  </defs>
  <title>heart</title>
  <g id="Layer_2" data-name="Layer 2">
    <g id="Isolation_Mode" data-name="Isolation Mode">
      <path class="cls-1" d="M6.8,12.44a.55.55,0,0,1-.38-.15L1.64,7.68A4.71,4.71,0,0,1,.3,2.49,3.67,3.67,0,0,1,3.73,0a4.18,4.18,0,0,1,3,1.65A4.1,4.1,0,0,1,9.65,0,3.72,3.72,0,0,1,13.1,2.41a4.77,4.77,0,0,1-1.23,5.26l-4.68,4.6A.55.55,0,0,1,6.8,12.44ZM3.73,1.1a2.6,2.6,0,0,0-2.4,1.78,3.58,3.58,0,0,0,1.06,4L6.8,11.12l4.3-4.23a3.69,3.69,0,0,0,1-4.06A2.64,2.64,0,0,0,9.65,1.1,3.3,3.3,0,0,0,7.2,2.89a.52.52,0,0,1-.49.31.55.55,0,0,1-.49-.3A3.39,3.39,0,0,0,3.73,1.1Z"/>
    </g>
  </g>
</svg>
