<svg id="Layer_3" data-name="Layer 3" xmlns="http://www.w3.org/2000/svg" width="22.379" height="16.099" viewBox="0 0 22.379 16.099">
  <title>mail</title>
  <path d="M848.277,443.656a2.084,2.084,0,0,0-.137-.725c0-.006,0-.013,0-.019l0-.007a2.094,2.094,0,0,0-.3-.522c-.015-.02-.031-.037-.047-.057a2.1,2.1,0,0,0-.943-.655c-.034-.012-.068-.022-.1-.032a2.08,2.08,0,0,0-.574-.09H828.006a2.078,2.078,0,0,0-.574.089c-.035.01-.069.02-.1.032a2.1,2.1,0,0,0-.938.65c-.018.022-.036.042-.054.065a2.1,2.1,0,0,0-.29.51l-.008.014c0,.012,0,.026-.008.038a2.084,2.084,0,0,0-.131.709v11.883a2.085,2.085,0,0,0,.131.708c0,.013,0,.026.008.039l.008.015a2.1,2.1,0,0,0,.29.509c.018.023.036.044.055.066a2.1,2.1,0,0,0,.937.649c.035.012.069.022.1.033a2.078,2.078,0,0,0,.573.089H846.17a2.078,2.078,0,0,0,.574-.09c.035-.01.07-.02.1-.032a2.1,2.1,0,0,0,.941-.653c.016-.02.033-.039.049-.059a2.1,2.1,0,0,0,.294-.52l0-.008c0-.007,0-.014,0-.021a2.086,2.086,0,0,0,.136-.724ZM832.814,449.6l-5.416,4.828V444.77Zm8.547,0,5.416-4.829v9.66Zm5.038-6.5-9.312,8.3-9.313-8.3a.6.6,0,0,1,.231-.047H846.17A.586.586,0,0,1,846.4,443.1Zm-18.625,13,6.166-5.5,2.648,2.361a.749.749,0,0,0,1,0l2.648-2.361,6.164,5.5a.586.586,0,0,1-.229.047H828.006A.6.6,0,0,1,827.775,456.1Z" transform="translate(-825.898 -441.549)"/>
</svg>
