<svg id="Layer_3" data-name="Layer 3" xmlns="http://www.w3.org/2000/svg" width="24.983" height="23.102" viewBox="0 0 24.983 23.102">
  <title>phone-btns</title>
  <g>
    <path d="M297.583,814.447l-.028-.251-.175-.184a17.917,17.917,0,0,0-24.412,0l-.172.179-.03.247a11.057,11.057,0,0,0-.086,1.349,11.173,11.173,0,0,0,.96,4.548,2.246,2.246,0,0,0,1.8,1.125,1.058,1.058,0,0,0,.365-.063,23.374,23.374,0,0,0,4.77-2.442,2.123,2.123,0,0,0,.912-1.777l-.432-1.926a.174.174,0,0,1,.04-.1,1,1,0,0,1,.675-.358,21.527,21.527,0,0,1,6.81,0,1.007,1.007,0,0,1,.673.359c.038.056.043.091.04.1l-.431,1.916a2.087,2.087,0,0,0,.932,1.795c1.571.913,3.333,1.765,4.692,2.4a1,1,0,0,0,.433.093,2.229,2.229,0,0,0,1.783-1.124,11.2,11.2,0,0,0,.963-4.555A12.244,12.244,0,0,0,297.583,814.447Zm-6.829,1.147a1.615,1.615,0,0,0-.259-1.278,2.5,2.5,0,0,0-1.686-1,24.984,24.984,0,0,0-3.646-.288h0a24.569,24.569,0,0,0-3.623.289,2.5,2.5,0,0,0-1.688,1,1.6,1.6,0,0,0-.256,1.272l.407,1.767a1.581,1.581,0,0,1-.228.33,22.5,22.5,0,0,1-4.359,2.266,1.254,1.254,0,0,1-.4-.22,9.694,9.694,0,0,1-.834-3.945,9.075,9.075,0,0,1,.047-.918,15.7,15.7,0,0,1,10.991-4.157,15.35,15.35,0,0,1,10.9,4.154c.031.338.046.64.046.921a9.72,9.72,0,0,1-.827,3.933,1.161,1.161,0,0,1-.363.226c-1.3-.614-2.96-1.419-4.4-2.252a2.22,2.22,0,0,1-.23-.292Z" transform="translate(-272.682 -809.212)"/>
    <path d="M285.082,828.773a1.77,1.77,0,1,0,1.769,1.77A1.771,1.771,0,0,0,285.082,828.773Zm.269,1.77a.269.269,0,1,1-.269-.27A.27.27,0,0,1,285.351,830.543Z" transform="translate(-272.682 -809.212)"/>
    <path d="M289.479,824.378a1.769,1.769,0,1,0,1.771,1.769A1.771,1.771,0,0,0,289.479,824.378Zm0,1.5a.269.269,0,1,1-.27.269A.27.27,0,0,1,289.479,825.878Z" transform="translate(-272.682 -809.212)"/>
    <path d="M285.082,824.378a1.769,1.769,0,1,0,1.77,1.769A1.771,1.771,0,0,0,285.082,824.378Zm.27,1.769a.27.27,0,1,1-.27-.269A.269.269,0,0,1,285.352,826.146Z" transform="translate(-272.682 -809.212)"/>
    <path d="M280.686,824.378a1.769,1.769,0,1,0,1.77,1.769A1.771,1.771,0,0,0,280.686,824.378Zm.27,1.769a.27.27,0,1,1-.27-.269A.269.269,0,0,1,280.955,826.146Z" transform="translate(-272.682 -809.212)"/>
    <path d="M289.479,819.979a1.769,1.769,0,1,0,1.771,1.769A1.771,1.771,0,0,0,289.479,819.979Zm0,1.5a.269.269,0,1,1-.27.269A.27.27,0,0,1,289.479,821.479Z" transform="translate(-272.682 -809.212)"/>
    <path d="M285.082,819.979a1.769,1.769,0,1,0,1.77,1.769A1.771,1.771,0,0,0,285.082,819.979Zm.27,1.769a.27.27,0,1,1-.27-.269A.269.269,0,0,1,285.352,821.748Z" transform="translate(-272.682 -809.212)"/>
    <path d="M280.686,819.979a1.769,1.769,0,1,0,1.77,1.769A1.771,1.771,0,0,0,280.686,819.979Zm.27,1.769a.27.27,0,1,1-.27-.269A.269.269,0,0,1,280.955,821.748Z" transform="translate(-272.682 -809.212)"/>
    <path d="M289.479,828.776a1.769,1.769,0,1,0,1.771,1.769A1.771,1.771,0,0,0,289.479,828.776Zm0,1.5a.269.269,0,1,1-.27.269A.27.27,0,0,1,289.479,830.276Z" transform="translate(-272.682 -809.212)"/>
    <path d="M280.686,828.776a1.769,1.769,0,1,0,1.77,1.769A1.771,1.771,0,0,0,280.686,828.776Zm.27,1.769a.27.27,0,1,1-.27-.269A.269.269,0,0,1,280.955,830.545Z" transform="translate(-272.682 -809.212)"/>
  </g>
</svg>
