<svg xmlns="http://www.w3.org/2000/svg" viewBox="0 0 34.18 35.03">
  <defs>
    <style>
      .cls-1 {
        fill: #334d5e;
      }
    </style>
  </defs>
  <title>phone</title>
  <g id="Layer_2" data-name="Layer 2">
    <g id="Isolation_Mode" data-name="Isolation Mode">
      <g>
        <path class="cls-1" d="M26.91,16.53h.16a1,1,0,0,0,1-.84,8.57,8.57,0,0,0-.26-3.81,8.84,8.84,0,0,0-2.24-3.77,7.15,7.15,0,0,0-3.89-2A6,6,0,0,0,19,6.25a1,1,0,1,0,.57,1.92,4,4,0,0,1,1.79-.11,5.16,5.16,0,0,1,2.8,1.49,6.93,6.93,0,0,1,1.73,2.92,6.58,6.58,0,0,1,.2,2.92A1,1,0,0,0,26.91,16.53Z"/>
        <path class="cls-1" d="M33.46,9.65a14.75,14.75,0,0,0-3.32-5.58A13.23,13.23,0,0,0,24.73.59a11.85,11.85,0,0,0-7.4,0,1,1,0,1,0,.62,1.9,9.75,9.75,0,0,1,6.16,0,11.23,11.23,0,0,1,4.59,3,12.74,12.74,0,0,1,2.86,4.82,12.22,12.22,0,0,1,0,7.63,1,1,0,1,0,1.9.62A14.21,14.21,0,0,0,33.46,9.65Z"/>
        <path class="cls-1" d="M24.84,20.06a1.94,1.94,0,0,0-2.72-.36l-2.48,1.9a1.94,1.94,0,0,0-.7,2,1,1,0,0,0-.18.06c-1.43.85-4.45-.15-6.84-3.26s-2.56-6.29-1.37-7.45a1,1,0,0,0,.11-.17,2,2,0,0,0,.91.23,1.93,1.93,0,0,0,1.18-.4l2.48-1.9A1.94,1.94,0,0,0,15.6,8L10.11.84A1.94,1.94,0,0,0,7.4.48L4.91,2.38a1.93,1.93,0,0,0-.74,1.29c0,.05,0,.1,0,.15H4.07c-.42,0-.72.21-2.54,1.71-3.3,2.72-1.12,10.87,5.07,19C11.62,31,17.32,35,21.16,35a4,4,0,0,0,2.44-.74c1.9-1.41,2.06-1.59,2.21-1.85a1,1,0,0,0,.09-.26l.14,0,.26,0a1.92,1.92,0,0,0,1.17-.4L30,29.93a1.94,1.94,0,0,0,.36-2.72ZM8.53,2.05,14,9.12,11.58,11,6.13,4ZM24.15,31.34c-.1.1-.47.4-1.74,1.34C20.25,34.27,14,30.87,8.19,23.25,2.48,15.8.77,8.74,2.81,7.06A21.16,21.16,0,0,1,4.48,5.76a1,1,0,0,0,.39-.25l4.5,5.88a1,1,0,0,0-.21.13C7,13.6,7.52,17.94,10.34,21.61c2.1,2.74,4.89,4.34,7.24,4.34a4.26,4.26,0,0,0,2.2-.57,1,1,0,0,0,.18-.16l4.49,5.86A1,1,0,0,0,24.15,31.34Zm2.17-1.13-5.45-7,2.4-1.91,5.49,7.07Z"/>
      </g>
    </g>
  </g>
</svg>
