<svg xmlns="http://www.w3.org/2000/svg" viewBox="0 0 34.6 34.59">
  <defs>
    <style>
      .cls-1 {
        fill: #334d5e;
      }
    </style>
  </defs>
  <title>search</title>
  <g id="Layer_2" data-name="Layer 2">
    <g id="Isolation_Mode" data-name="Isolation Mode">
      <path class="cls-1" d="M30.45,34.59a1,1,0,0,1-.71-.29l-8.08-8.08a1,1,0,0,1,0-1.43l3.2-3.1a1,1,0,0,1,1.4,0l8,8a1,1,0,0,1,0,1.41l-3.15,3.15A1,1,0,0,1,30.45,34.59Zm-6.66-9.07,6.66,6.66,1.74-1.74-6.63-6.63ZM14.4,28.79a14.4,14.4,0,1,1,14.4-14.4A14.41,14.41,0,0,1,14.4,28.79ZM14.4,2a12.4,12.4,0,1,0,12.4,12.4A12.41,12.41,0,0,0,14.4,2ZM25,14.49A10.71,10.71,0,0,0,14.27,3.8a1,1,0,0,0,0,2A8.7,8.7,0,0,1,23,14.49a1,1,0,0,0,2,0Z"/>
    </g>
  </g>
</svg>
