<svg xmlns="http://www.w3.org/2000/svg" viewBox="0 0 27.05 21.95">
  <defs>
    <style>
      .cls-1 {
        fill: #35424b;
      }
    </style>
  </defs>
  <title>tr-box</title>
  <g id="Layer_2" data-name="Layer 2">
    <g id="Isolation_Mode" data-name="Isolation Mode">
      <g>
        <path class="cls-1" d="M3.67,7.58a.5.5,0,0,1-.33-.12L.29,4.84A.5.5,0,0,1,.44,4L9.12.52a.5.5,0,0,1,.51.08l3.05,2.63a.5.5,0,0,1-.14.84L3.86,7.55a.49.49,0,0,1-.19,0Zm-2.1-3,2.2,1.89,7.64-3.05L9.21,1.56,1.57,4.61Z"/>
        <path class="cls-1" d="M12.19,22a.5.5,0,0,1-.5-.5V11.66a.5.5,0,0,1,1,0v9.11l9.41-3V13a.5.5,0,1,1,1,0v5.21a.5.5,0,0,1-.35.48L12.34,21.93l-.15,0Z"/>
        <path class="cls-1" d="M17.86,14.49a.5.5,0,0,1-.33-.12l-3-2.63a.5.5,0,0,1,.14-.84l8.68-3.47a.5.5,0,0,1,.51.08l3.05,2.63a.5.5,0,0,1-.14.84L18,14.45a.49.49,0,0,1-.19,0Zm-2.1-3L18,13.41l7.64-3.06L23.4,8.46l-7.64,3.06Z"/>
        <path class="cls-1" d="M22.61,7.39a.49.49,0,0,1-.19,0l-8.7-3.48A.5.5,0,0,1,13.56,3l3-2.91A.49.49,0,0,1,17.09,0l8.7,3.48a.5.5,0,0,1,.16.82l-3,2.9a.5.5,0,0,1-.35.14Zm-7.8-4.16L22.5,6.3l2.2-2.14L17,1.09l-2.2,2.14Z"/>
        <path class="cls-1" d="M12,22a.5.5,0,0,1-.19,0l-8-3.29a.5.5,0,0,1-.31-.46V13.34a.5.5,0,1,1,1,0v4.48L12.21,21A.5.5,0,0,1,12,22Z"/>
        <path class="cls-1" d="M9.2,15.07A.49.49,0,0,1,9,15L.31,11.55a.5.5,0,0,1-.16-.82l3-2.9a.5.5,0,0,1,.53-.11l8.7,3.48a.5.5,0,0,1,.16.82l-3,2.9a.5.5,0,0,1-.35.14ZM1.4,10.9,9.09,14l2.2-2.14L3.6,8.77,1.4,10.9Z"/>
      </g>
    </g>
  </g>
</svg>
