<svg xmlns="http://www.w3.org/2000/svg" viewBox="0 0 22.63 17.23">
  <defs>
    <style>
      .cls-1 {
        fill: #424953;
      }
    </style>
  </defs>
  <title>tr-car</title>
  <g id="Layer_2" data-name="Layer 2">
    <g id="Isolation_Mode" data-name="Isolation Mode">
      <g>
        <path class="cls-1" d="M21.63,1v9.5H10.09V1H21.63m1-1H9.09V11.5H22.63V0Z"/>
        <path class="cls-1" d="M15,14.06H9.82a.5.5,0,0,1,0-1H15a.5.5,0,0,1,0,1Z"/>
        <path class="cls-1" d="M19,13.46a1.39,1.39,0,1,1-1.39,1.39A1.39,1.39,0,0,1,19,13.46m0-1a2.39,2.39,0,1,0,2.39,2.39A2.39,2.39,0,0,0,19,12.46Z"/>
        <path class="cls-1" d="M6.85,4.71v5.85a4.37,4.37,0,0,0-5,2.94H1V9.23L3.3,4.71H6.85m1-1H2.69L0,9V14.5H2.65A3.36,3.36,0,0,1,7.85,12V3.71Z"/>
        <path class="cls-1" d="M6,13.46a1.39,1.39,0,1,1-1.39,1.39A1.39,1.39,0,0,1,6,13.46m0-1a2.39,2.39,0,1,0,2.39,2.39A2.39,2.39,0,0,0,6,12.46Z"/>
      </g>
    </g>
  </g>
</svg>
