<svg xmlns="http://www.w3.org/2000/svg" viewBox="0 0 22.31 18.41">
  <defs>
    <style>
      .cls-1 {
        fill: #35424b;
      }
    </style>
  </defs>
  <title>tr-camera</title>
  <g id="Layer_2" data-name="Layer 2">
    <g id="Isolation_Mode" data-name="Isolation Mode">
      <g>
        <path class="cls-1" d="M5.91,18.35a.5.5,0,0,1-.5-.5V3.07a.5.5,0,1,1,1,0V17.85a.5.5,0,0,1-.5.5Z"/>
        <path class="cls-1" d="M13.51,15.92A5.46,5.46,0,1,1,19,10.46a5.47,5.47,0,0,1-5.46,5.46Zm0-9.92A4.46,4.46,0,1,0,18,10.46,4.46,4.46,0,0,0,13.51,6Z"/>
        <path class="cls-1" d="M20.42,18.41H1.89A1.89,1.89,0,0,1,0,16.53V4.4A1.89,1.89,0,0,1,1.89,2.52H8.16L10,.19A.5.5,0,0,1,10.38,0h6.27A.5.5,0,0,1,17,.19l1.82,2.32h1.56A1.89,1.89,0,0,1,22.31,4.4V16.53a1.89,1.89,0,0,1-1.88,1.89ZM1.89,3.52A.89.89,0,0,0,1,4.4V16.53a.89.89,0,0,0,.89.89H20.42a.89.89,0,0,0,.88-.89V4.4a.89.89,0,0,0-.88-.89h-1.8a.5.5,0,0,1-.39-.19L16.4,1H10.62L8.8,3.32a.5.5,0,0,1-.39.19Z"/>
      </g>
    </g>
  </g>
</svg>
