<svg xmlns="http://www.w3.org/2000/svg" viewBox="0 0 22.5 24.31">
  <defs>
    <style>
      .cls-1 {
        fill: #35424b;
      }
    </style>
  </defs>
  <title>tr-gift</title>
  <g id="Layer_2" data-name="Layer 2">
    <g id="Isolation_Mode" data-name="Isolation Mode">
      <g>
        <path class="cls-1" d="M19.7,24.31H2.8a1.42,1.42,0,0,1-1.42-1.42V10.76a.5.5,0,1,1,1,0V22.89a.42.42,0,0,0,.42.42H19.7a.42.42,0,0,0,.42-.42V10.76a.5.5,0,0,1,1,0V22.89a1.42,1.42,0,0,1-1.42,1.42Z"/>
        <path class="cls-1" d="M21.08,10.95H1.42A1.42,1.42,0,0,1,0,9.53V7.84A1.42,1.42,0,0,1,1.42,6.42H21.08A1.42,1.42,0,0,1,22.5,7.84V9.53a1.42,1.42,0,0,1-1.42,1.42ZM1.42,7.42A.42.42,0,0,0,1,7.84V9.53a.42.42,0,0,0,.42.42H21.08a.42.42,0,0,0,.42-.42V7.84a.42.42,0,0,0-.42-.42Z"/>
        <g>
          <path class="cls-1" d="M9.17,24.19a.5.5,0,0,1-.5-.5V6.86a.5.5,0,0,1,1,0V23.69a.5.5,0,0,1-.5.5Z"/>
          <path class="cls-1" d="M13.33,24.19a.5.5,0,0,1-.5-.5V6.86a.5.5,0,1,1,1,0V23.69a.5.5,0,0,1-.5.5Z"/>
        </g>
        <g>
          <path class="cls-1" d="M9.31,6.92c-2.14,0-3.58-.35-4.27-1A3.47,3.47,0,0,1,5,1a3.55,3.55,0,0,1,4.9,0c1.29,1.28,1,5,1,5.44a.5.5,0,0,1-.46.46s-.49,0-1.17,0ZM7.49,1A2.46,2.46,0,0,0,5.75,5.18c.47.47,1.77.74,3.56.74H10c.06-1.44-.08-3.56-.73-4.21A2.44,2.44,0,0,0,7.49,1Z"/>
          <path class="cls-1" d="M13.19,6.92h0c-.68,0-1.17,0-1.17,0a.5.5,0,0,1-.46-.46c0-.42-.29-4.15,1-5.44a3.55,3.55,0,0,1,4.9,0,3.47,3.47,0,0,1,0,4.9c-.69.69-2.12,1-4.27,1Zm-.66-1h.66c1.79,0,3.09-.27,3.56-.74a2.47,2.47,0,0,0,0-3.49,2.52,2.52,0,0,0-3.49,0c-.65.65-.79,2.77-.73,4.21Z"/>
        </g>
      </g>
    </g>
  </g>
</svg>
