<svg xmlns="http://www.w3.org/2000/svg" viewBox="0 0 21.36 24.57">
  <defs>
    <style>
      .cls-1 {
        fill: #35424b;
      }
    </style>
  </defs>
  <title>tr-shield</title>
  <g id="Layer_2" data-name="Layer 2">
    <g id="Isolation_Mode" data-name="Isolation Mode">
      <g>
        <path class="cls-1" d="M10.68,24.57c-2.54,0-5-2.08-9-6.19A7,7,0,0,1,0,14.25V4.38a3.29,3.29,0,0,1,2.23-3,27,27,0,0,1,16.9,0,3.34,3.34,0,0,1,2.23,3v9.87a6.92,6.92,0,0,1-1.64,4.13c-4,4.11-6.5,6.2-9,6.2ZM10.68,1A25.82,25.82,0,0,0,2.54,2.31,2.32,2.32,0,0,0,1,4.38v9.87a6,6,0,0,0,1.36,3.44c3.8,3.9,6.13,5.88,8.31,5.88s4.52-2,8.32-5.89a6,6,0,0,0,1.36-3.43V4.38a2.36,2.36,0,0,0-1.53-2.07A25.86,25.86,0,0,0,10.68,1Z"/>
        <path class="cls-1" d="M10.68,21.57c-1.6,0-4.28-2.61-6.88-5.28a4.17,4.17,0,0,1-.79-2V4.62a.5.5,0,0,1,.35-.48A23.94,23.94,0,0,1,18,4.15a.5.5,0,0,1,.35.48v9.62a4.16,4.16,0,0,1-.8,2.05c-2.61,2.68-5.27,5.27-6.88,5.27ZM4,5v9.24a3.47,3.47,0,0,0,.51,1.36c1.45,1.49,4.85,5,6.17,5s4.7-3.47,6.14-5a3.43,3.43,0,0,0,.54-1.38V5A22.94,22.94,0,0,0,4,5Z"/>
        <path class="cls-1" d="M10.68,21.26a.5.5,0,0,1-.5-.5V3.6a.5.5,0,1,1,1,0V20.76a.5.5,0,0,1-.5.5Z"/>
      </g>
    </g>
  </g>
</svg>
