<svg xmlns="http://www.w3.org/2000/svg" viewBox="0 0 34.3 34.04">
  <defs>
    <style>
      .cls-1 {
        fill: none;
        stroke: #231f20;
        stroke-linecap: round;
        stroke-linejoin: round;
        stroke-width: 1.42px;
      }
    </style>
  </defs>
  <title>cat-2</title>
  <g id="Layer_2" data-name="Layer 2">
    <g id="Layer_1-2" data-name="Layer 1">
      <path class="cls-1" d="M4.39,2.91H29.91A3.7,3.7,0,0,1,33.59,6.6v23a3.7,3.7,0,0,1-3.68,3.69H4.39A3.7,3.7,0,0,1,.71,29.65V6.6A3.7,3.7,0,0,1,4.39,2.91ZM7.14.71v4.6M13.81.71v4.6M20.49.71v4.6M27.16.71v4.6M1.2,10H33.59M7.14,5.82a.71.71,0,1,1-.71.71.71.71,0,0,1,.71-.71Zm6.68,0a.71.71,0,1,1-.71.71.71.71,0,0,1,.71-.71Zm6.67,0a.71.71,0,1,1-.71.71.71.71,0,0,1,.71-.71Zm6.68,0a.71.71,0,1,1-.71.71.71.71,0,0,1,.71-.71ZM9.49,26.28a1.82,1.82,0,0,0,.58.75.77.77,0,0,0,.42.13A1.08,1.08,0,0,0,11,27a2.34,2.34,0,0,0,.83-.72.5.5,0,0,1,.48-.33.5.5,0,0,1,.3.08.49.49,0,0,1,.22.33,1.68,1.68,0,0,0,.52.62.77.77,0,0,0,.42.13,1.08,1.08,0,0,0,.47-.11,2.34,2.34,0,0,0,.83-.72.5.5,0,0,1,.26-.28.56.56,0,0,1,.52,0,.49.49,0,0,1,.22.33,1.68,1.68,0,0,0,.52.62.77.77,0,0,0,.42.13,1.08,1.08,0,0,0,.47-.11,2.34,2.34,0,0,0,.83-.72.5.5,0,0,1,.26-.28.56.56,0,0,1,.52,0,.49.49,0,0,1,.22.33,1.68,1.68,0,0,0,.52.62.77.77,0,0,0,.42.13,1.08,1.08,0,0,0,.47-.11,2.34,2.34,0,0,0,.83-.72.5.5,0,0,1,.26-.28.56.56,0,0,1,.52,0,.49.49,0,0,1,.22.33A1.68,1.68,0,0,0,23,27a.77.77,0,0,0,.42.13,1.08,1.08,0,0,0,.47-.11,2.42,2.42,0,0,0,.91-.83m.92,3.35H8.57m.92-.26v-3.8a1.21,1.21,0,0,1,1.21-1.19H23.6a1.21,1.21,0,0,1,1.21,1.19v3.8M13.09,19.09V15.7a1.21,1.21,0,0,1,1.21-1.19H20a1.21,1.21,0,0,1,1.21,1.19v3.39m-10.13,5V20.44a1.21,1.21,0,0,1,1.21-1.19H22a1.21,1.21,0,0,1,1.21,1.19v3.67M11.15,21.47a1.81,1.81,0,0,0,.58.74.76.76,0,0,0,.42.13,1.07,1.07,0,0,0,.47-.11,2.34,2.34,0,0,0,.83-.72.5.5,0,0,1,.26-.28.56.56,0,0,1,.52,0,.49.49,0,0,1,.22.33,1.67,1.67,0,0,0,.52.62.76.76,0,0,0,.42.13,1.08,1.08,0,0,0,.47-.11,2.34,2.34,0,0,0,.83-.72.5.5,0,0,1,.26-.28.56.56,0,0,1,.52,0,.49.49,0,0,1,.22.33,1.66,1.66,0,0,0,.52.62.76.76,0,0,0,.42.13,1.08,1.08,0,0,0,.47-.11,2.34,2.34,0,0,0,.83-.72.5.5,0,0,1,.26-.28.56.56,0,0,1,.52,0,.49.49,0,0,1,.22.33,1.66,1.66,0,0,0,.52.62.76.76,0,0,0,.42.13,1.07,1.07,0,0,0,.47-.11,2.33,2.33,0,0,0,.83-.72M13.09,16.59a1.68,1.68,0,0,0,.54.69.71.71,0,0,0,.39.12,1,1,0,0,0,.43-.1,2.17,2.17,0,0,0,.77-.66.46.46,0,0,1,.24-.26.46.46,0,0,1,.21,0,.47.47,0,0,1,.28.08.46.46,0,0,1,.2.3,1.54,1.54,0,0,0,.48.57.71.71,0,0,0,.39.12,1,1,0,0,0,.43-.1,2.17,2.17,0,0,0,.77-.66.46.46,0,0,1,.24-.26.47.47,0,0,1,.21,0,.47.47,0,0,1,.28.08.46.46,0,0,1,.2.3,1.54,1.54,0,0,0,.48.57.71.71,0,0,0,.39.12,1,1,0,0,0,.43-.1,2.17,2.17,0,0,0,.77-.66m-4.06-4.47a1.17,1.17,0,1,0,1.17,1.17,1.17,1.17,0,0,0-1.17-1.17Z"/>
    </g>
  </g>
</svg>
