<svg xmlns="http://www.w3.org/2000/svg" viewBox="0 0 39.96 40.89">
  <defs>
    <style>
      .cls-1, .cls-2, .cls-3, .cls-4, .cls-5 {
        fill: none;
        stroke: #231f20;
        stroke-linecap: round;
        stroke-linejoin: round;
      }

      .cls-1 {
        stroke-width: 1.42px;
      }

      .cls-2 {
        stroke-width: 1.03px;
      }

      .cls-3 {
        stroke-width: 1.42px;
      }

      .cls-4 {
        stroke-width: 1.42px;
      }

      .cls-5 {
        stroke-width: 0.59px;
      }
    </style>
  </defs>
  <title>cat-3</title>
  <g id="Layer_2" data-name="Layer 2">
    <g id="Layer_1-2" data-name="Layer 1">
      <path class="cls-1" d="M6.16,8.6C15.13,9,30.45,6.84,39.25.71M23.75,7.12l2.14,10.34-4.07-3-2.56,4.36L17.13,8.53M33.37,4.22,37,14.11l-4.46-2.3-1.88,4.7L27,6.62m9.66,17c-13,.81-24.47-1.55-33.66-7.07M27.34,24.3l-.12,10.51,3.42-3.7L34,34.87l.13-10.5M16.93,22.8,15.16,33.21l4-3.1,2.71,4.26L23.61,24M7.21,19.35l-3.3,10,4.38-2.46,2,4.63,3.3-10m4.75,15.35a7.08,7.08,0,0,0,4.92.1c0,.89-.39,2.64-.15,3s1.7.11,2.25-.25M.71,26.93C2.64,33.4,8.93,37.31,14,36.29c-.15.84-.82,2.34-.65,2.81s1.58.16,2.18,0"/>
      <path class="cls-2" d="M5.86,14.3c4.48-2.5,3.77,4.21,8.4.47"/>
      <path class="cls-3" d="M32.14,20.23c3.47-1.83,4,1.37,7,.06"/>
      <path class="cls-4" d="M6.67,38.55A3.93,3.93,0,0,1,3,36.68"/>
      <path class="cls-5" d="M9.38,22.12c-.48,0-.53.68-.85.81s-.76-.31-1.06,0c-.13.48.44.72.45,1.08s-.54.67-.37,1.05c.4.26.8-.23,1.13-.15s.42.73.83.67c.37-.32.06-.87.25-1.17s.8-.22.88-.64c-.17-.46-.77-.3-1-.58s.07-.86-.29-1.06Z"/>
      <path class="cls-5" d="M30.72,25.81c-.44.17-.31.8-.58,1s-.82-.08-1,.29c0,.5.63.57.74.9s-.32.79,0,1.11c.46.14.7-.45,1-.47s.62.57,1,.4c.26-.42-.19-.85-.1-1.19s.7-.44.66-.87c-.29-.39-.82-.07-1.1-.27s-.18-.84-.58-.93Z"/>
      <path class="cls-5" d="M20.29,24.79c-.47,0-.52.69-.83.83s-.76-.3-1.06,0c-.11.49.46.71.48,1.07s-.52.68-.34,1.06c.4.25.8-.25,1.13-.17s.44.71.85.65c.36-.33,0-.87.22-1.17s.79-.24.87-.66c-.18-.46-.77-.29-1-.55s0-.86-.31-1.05Z"/>
    </g>
  </g>
</svg>
