<svg xmlns="http://www.w3.org/2000/svg" viewBox="0 0 284 245" fill="#e7f1f4" preserveAspectRatio="none">
   <path d="M0,0V245H284V0ZM281.77,134q-.07,6.44-.23,12.87-.33,12.87-1,25.72Q279,198.27,276,223.9c-.77,6.25-4.24,11.83-7.62,12.41a475.89,475.89,0,0,1-62.23,5.92c-10.36.35-20.73.45-31.13.39l-7.81-.08-7.82-.13q-7.83-.15-15.69-.38c-41.92-1.25-84.76-3.35-129.39-3-3.64,0-7.09-5.24-7.64-11.79C3.72,191.49,2.34,155.88,2.57,121q0-3.27.06-6.53t.1-6.52q.12-6.51.31-13,.39-13,1.08-25.86Q5.52,43.35,8.2,17.85c.67-6.22,4.07-11.65,7.51-12.08a552.33,552.33,0,0,1,63.1-3.65c10.5-.06,21,.1,31.47.4s21,.73,31.47,1.21c42,1.95,84,4.66,126.4,3.53,3.45-.09,6.89,4.84,7.6,11.09a956.55,956.55,0,0,1,6.07,102.76q0,3.22,0,6.44T281.77,134Z"/>
</svg>
