<svg xmlns="http://www.w3.org/2000/svg" viewBox="0 0 37.25 37.85">
  <defs>
    <style>
      .cls-1 {
        fill: none;
        stroke: #231f20;
        stroke-linecap: round;
        stroke-linejoin: round;
        stroke-width: 1.42px;
      }
    </style>
  </defs>
  <title>cat-4</title>
  <g id="Layer_2" data-name="Layer 2">
    <g id="Layer_1-2" data-name="Layer 1">
      <line class="cls-1" x1="31.09" y1="21.56" x2="28.61" y2="15"/>
      <path class="cls-1" d="M5.88,8.73c-1.14,0-1.45,1.48-2.24,1.71s-1.72-.95-2.52-.32C.69,11.25,2,12,1.91,12.82S.45,14.26.75,15.23c.88.73,2-.34,2.73,0S4.3,17,5.29,17c1-.67.37-2,.9-2.72s2-.3,2.27-1.29c-.28-1.15-1.75-.93-2.18-1.64s.39-2-.4-2.61Z"/>
      <path class="cls-1" d="M31.71,15.45c1-.24.85-1.43,1.47-1.82s1.74.21,2.27-.52c.1-1.06-1-1.28-1.17-2s.74-1.68.25-2.44c-.93-.41-1.48.64-2.19.57s-1.28-1.25-2.12-1c-.67.81.1,1.67-.19,2.37s-1.53.91-1.56,1.83c.51.91,1.54.39,2.08.9s.33,1.81,1.15,2.11Z"/>
      <line class="cls-1" x1="22.86" y1="12.02" x2="16.31" y2="14.96"/>
      <line class="cls-1" x1="6.96" y1="14.45" x2="12.33" y2="15.84"/>
      <line class="cls-1" x1="28.61" y1="15" x2="25.69" y2="25.1"/>
      <path class="cls-1" d="M13.6,7.59l.55,7.76M18.72,9.4,16.31,15"/>
      <line class="cls-1" x1="12.33" y1="15.84" x2="2.11" y2="20.5"/>
      <line class="cls-1" x1="9.94" y1="12.14" x2="14.15" y2="15.34"/>
      <path class="cls-1" d="M36.54,21.92c-.71-.87-1.94,0-2.62-.46s-.5-2-1.48-2.16c-1.1.41-.68,1.76-1.35,2.26s-2.13-.09-2.65.75c0,1.12,1.51,1.11,1.78,1.86s-.82,1.92-.16,2.63c1.12.29,1.62-1.07,2.45-1.11s1.62,1.28,2.55.87c.67-.94-.51-1.77-.27-2.55s1.82-1.13,1.74-2.09Z"/>
      <path class="cls-1" d="M24.56,3.48c-1,.24-.85,1.43-1.47,1.82s-1.74-.21-2.27.52c-.1,1.06,1,1.28,1.17,2s-.74,1.68-.25,2.44c.93.41,1.47-.64,2.19-.57S25.2,11,26,10.69c.67-.81-.1-1.67.19-2.37s1.53-.91,1.56-1.83c-.51-.91-1.54-.39-2.08-.9s-.33-1.81-1.15-2.11ZM13.65.71c-1.09.35-.86,1.88-1.52,2.37s-1.94-.3-2.48.57c0,1.2,1.43,1.44,1.67,2.26S10.43,7.76,11,8.57c1.08.39,1.74-1,2.55-1S15,9,15.92,8.67c.68-1-.36-2.05-.09-2.86s1.74-1,1.69-2c-.65-1-2-.27-2.61-.79S14.59,1,13.65.71Zm3.51,36.43c.78-1.86,10-22.54,9.33-23.19C26,13.52,5.12,22.59,3.35,23.33A28.31,28.31,0,0,0,17.15,37.14ZM20.4,16.19l2.13,7.93M6.61,22.21l2.44,9.28m1-10.78L13.88,35M13.51,19.2l4.25,15.85M17,17.7l3.19,11.89"/>
      <path class="cls-1" d="M30.43,31.06c-.71-.87-1.94,0-2.62-.46s-.5-2-1.48-2.16c-1.1.41-.68,1.76-1.35,2.26s-2.13-.09-2.65.75c0,1.12,1.51,1.11,1.78,1.86s-.82,1.92-.16,2.63c1.12.29,1.62-1.07,2.45-1.11S28,36.11,29,35.7c.67-.94-.51-1.77-.27-2.55s1.82-1.13,1.74-2.09Z"/>
      <line class="cls-1" x1="23.95" y1="27.89" x2="25.3" y2="30.6"/>
      <line class="cls-1" x1="23.44" y1="15.18" x2="24.6" y2="19.56"/>
    </g>
  </g>
</svg>
