<svg xmlns="http://www.w3.org/2000/svg" viewBox="0 0 41.22 46.51">
  <defs>
    <style>
      .cls-1, .cls-2, .cls-3, .cls-4, .cls-5 {
        fill: none;
        stroke: #231f20;
        stroke-linecap: round;
        stroke-linejoin: round;
      }

      .cls-1 {
        stroke-width: 1.42px;
      }

      .cls-2 {
        stroke-width: 1.42px;
      }

      .cls-3 {
        stroke-width: 0.94px;
      }

      .cls-4 {
        stroke-width: 0.94px;
      }

      .cls-5 {
        stroke-width: 1.42px;
      }
    </style>
  </defs>
  <title>cat-6</title>
  <g id="Layer_2" data-name="Layer 2">
    <g id="Layer_1-2" data-name="Layer 1">
      <path class="cls-1" d="M20.65,40.46c1.55-4.17.45-6,.42-6.08-1.26-3.33,1.77-3.69.73-6.68.64-.21,1.68-.69,1.54-1.24S21.78,25.14,21,24.6m6.88-15A13.44,13.44,0,0,0,24.73,3L24,2.43a9.33,9.33,0,0,0-8.32-1.3C10.28,2.6,6.6,7.29,8.08,14.36M19.72,24.85a2.74,2.74,0,0,0,.78,0c-.22.82-1,2.26-.89,2.74s1.56.29,2.18.15M17.94,2.94a6.17,6.17,0,0,1,4.66,1.2l.19.16.15.13a9.32,9.32,0,0,1,2.51,4.85"/>
      <path class="cls-2" d="M24.79,41.73c-.93-1.22-.3-4.09-.24-4.33.58-2.49,2.82-1.81,3.2-4.41.59.09,1.6.14,1.71-.34s-.67-1.67-1-2.4C34.48,31,38.53,26.17,40,20.85a10,10,0,0,0,.06-5.95l-.3-.74a8.22,8.22,0,0,0-6-4.41C29,8.68,24.18,10.86,22.45,17c-1.61,5.73,1.23,11.61,5.46,13.22-.5.56-1.71,1.36-1.81,1.79s1.1.87,1.64,1m7.07-20.93A5.44,5.44,0,0,1,38,14.9l.08.2.06.17a8.22,8.22,0,0,1,0,4.82"/>
      <path class="cls-2" d="M21.27,45.8c-4-1.6-2.53-6.71-4.21-9,.49-.34,1.25-1,1-1.43s-1.64-.74-2.41-1c4.86-3.71,4.47-10,1.87-14.84a10,10,0,0,0-4.07-4.34l-.73-.33a8.22,8.22,0,0,0-7.36,1C1.11,18.36-.84,23.25,2.16,28.86c2.8,5.25,8.93,7.53,13.09,5.76,0,.75-.3,2.16-.07,2.54s1.39-.14,1.88-.41"/>
      <path class="cls-3" d="M19.5,8.48c-.76,0-1,1-1.49,1.13S16.87,9,16.34,9.4c-.28.74.57,1.22.52,1.78s-1,1-.77,1.6c.58.49,1.31-.22,1.81,0s.54,1.22,1.2,1.2c.64-.44.24-1.36.59-1.8s1.3-.2,1.51-.86c-.18-.76-1.16-.62-1.44-1.08S20,8.86,19.5,8.48Z"/>
      <path class="cls-4" d="M9.29,7.72c0,.57-.89,1-.63,1.65.62.44,1.29-.33,1.8-.18s.64,1.17,1.29,1.1c.61-.49.13-1.37.45-1.85s1.28-.31,1.43-1c-.25-.74-1.21-.52-1.53-1s.15-1.36-.41-1.7c-.76,0-.88,1.05-1.39,1.25"/>
      <path class="cls-5" d="M18,28.56l-6,5.56M11.78,15,1.32,24.51M15,16.87,2.26,28.53m14.95-8.62L5.14,31m13.45-7.26L8.1,33.36"/>
    </g>
  </g>
</svg>
