<svg xmlns="http://www.w3.org/2000/svg" viewBox="0 0 35.15 35.23">
  <defs>
    <style>
      .cls-1 {
        fill: none;
        stroke: #231f20;
        stroke-linecap: round;
        stroke-linejoin: round;
        stroke-width: 1.42px;
      }
    </style>
  </defs>
  <title>cat-1</title>
  <g id="Layer_2" data-name="Layer 2">
    <g id="Layer_1-2" data-name="Layer 1">
      <path class="cls-1" d="M19.32,24.73a7.24,7.24,0,0,0,2.59,1.56c-.55.7-1.9,1.86-1.93,2.29s1.29,1.12,1.94,1.16m-2.16,4.78A2.43,2.43,0,0,1,21,31.82c.8-.81.64-.73.93-2.08.66,0,2.41.18,2.43-.24s-1.42-2.59-1.55-3.12c2,.1,5.18-.39,6.92-2a14.76,14.76,0,0,0,4.09-6.89C36.08,10.32,31.75,6,28.12,4.62a11.67,11.67,0,0,0-3.64-.84A7.35,7.35,0,0,0,22.2,4M16.1,34.38c-1.84-3.46,1.35-4,0-7,.62-.27,1.62-.83,1.43-1.36s-1.65-1.19-2.46-1.66c6.24-3,7.22-10.06,5.42-16.07A11.37,11.37,0,0,0,17,2.55L16.23,2a9.33,9.33,0,0,0-8.4-.6C2.54,3.34-.73,8.33,1.34,15.25c1.93,6.46,8.23,10.38,13.25,9.36-.15.84-.82,2.34-.65,2.81s1.58.16,2.18,0m16-12.11,0-.27a7.9,7.9,0,0,0-1.29-5.54,7.47,7.47,0,0,0-4.67-3.12M10.68,17.07c-.71,0-.9.92-1.39,1.06s-1.07-.59-1.57-.2c-.27.7.53,1.14.49,1.67s-.91.9-.72,1.5c.55.45,1.23-.21,1.7,0s.51,1.14,1.12,1.12c.6-.42.23-1.27.56-1.69s1.22-.19,1.41-.8c-.17-.71-1.09-.58-1.35-1s.24-1.26-.25-1.62Zm6.73-1.64c-.71,0-.9.92-1.39,1.06s-1.07-.59-1.57-.2c-.27.7.53,1.14.49,1.67s-.91.9-.72,1.5c.55.45,1.23-.21,1.7,0s.51,1.14,1.12,1.12c.6-.42.23-1.27.56-1.69s1.22-.19,1.41-.8c-.17-.71-1.09-.58-1.35-1s.25-1.26-.25-1.62Zm-8.53-4.9c-.71,0-.9.92-1.39,1.06s-1.07-.59-1.57-.2c-.27.7.53,1.14.49,1.67s-.91.9-.72,1.5c.55.45,1.23-.21,1.7,0s.51,1.14,1.12,1.12c.6-.42.23-1.27.56-1.69s1.22-.19,1.41-.8c-.17-.71-1.09-.58-1.35-1s.24-1.26-.25-1.62Zm6.73-1.64c-.71,0-.9.92-1.39,1.06s-1.07-.59-1.57-.2c-.27.7.53,1.14.49,1.67s-.91.9-.72,1.5c.55.45,1.23-.21,1.7,0S14.63,14,15.24,14c.6-.42.23-1.27.56-1.69s1.22-.19,1.41-.8c-.17-.71-1.09-.58-1.35-1s.25-1.26-.25-1.62ZM20.43,8c-.49.14-1.08-.6-1.58-.2-.27.7.53,1.14.49,1.67s-.91.9-.72,1.5c.55.45,1.23-.21,1.7,0s.51,1.14,1.12,1.12M1.88,16.81c0-.34,0-.66.15-.84.33-.42,1.22-.19,1.41-.8-.17-.71-1.09-.58-1.35-1s.24-1.26-.25-1.62c-.71,0-.62.92-1.11,1.06M6.76,4c-.71,0-.9.92-1.39,1.06S4.3,4.52,3.8,4.91c-.27.7.53,1.14.49,1.67s-.91.9-.72,1.5c.55.45,1.23-.21,1.7,0S5.78,9.2,6.4,9.18C7,8.76,6.62,7.9,7,7.49s1.22-.19,1.41-.8C8.19,6,7.28,6.11,7,5.67S7.26,4.41,6.76,4Zm6.73-1.64c-.71,0-.9.92-1.39,1.06s-1.07-.59-1.57-.2c-.27.7.53,1.14.49,1.67s-.91.9-.72,1.5c.55.45,1.23-.21,1.7,0s.51,1.14,1.12,1.12c.6-.42.23-1.27.56-1.69S14.9,5.66,15.1,5c-.17-.71-1.09-.58-1.35-1s.25-1.26-.25-1.62Z"/>
    </g>
  </g>
</svg>
