<svg id="Layer_1" data-name="Layer 1" xmlns="http://www.w3.org/2000/svg" width="91.318" height="50.362" viewBox="0 0 91.318 50.362">
  <title>intro-bus</title>
  <path d="M26.42,257.258h-.311c.083-.122.142-.26.213-.39C26.35,257,26.387,257.128,26.42,257.258Z" transform="translate(-17.449 -213.155)" style="fill: #c5c9ff"/>
  <path d="M21.972,250.181v-4.488H31.989a10.007,10.007,0,0,0-5.645,6.919,4.525,4.525,0,0,0-4-2.431Z" transform="translate(-17.449 -213.155)" style="fill: #f65d2a"/>
  <path d="M29.344,254.785a6.733,6.733,0,1,0,6.733-6.733A6.741,6.741,0,0,0,29.344,254.785Zm3.111,0a3.622,3.622,0,1,1,3.622,3.621A3.626,3.626,0,0,1,32.455,254.785Z" transform="translate(-17.449 -213.155)" style="fill: #f67f28"/>
  <path d="M21.972,236.344H66.008V215.867H21.972Z" transform="translate(-17.449 -213.155)" style="fill: #f67f28"/>
  <path d="M46.055,254.785a9.986,9.986,0,0,0-5.889-9.093H66.008v11.565H45.733A9.947,9.947,0,0,0,46.055,254.785Z" transform="translate(-17.449 -213.155)" style="fill: #f65d2a"/>
  <rect x="4.522" y="24.478" width="44.036" height="6.06" style="fill: #f67f28"/>
  <path d="M73.281,254.785a9.965,9.965,0,0,0,.32,2.473H68.008V245.692H79.171A9.986,9.986,0,0,0,73.281,254.785Z" transform="translate(-17.449 -213.155)" style="fill: #f65d2a"/>
  <path d="M24.888,254.719a2.541,2.541,0,0,1-2.539,2.539H20.841a1.393,1.393,0,0,1-1.392-1.392v-2.294a1.393,1.393,0,0,1,1.392-1.392h1.508A2.541,2.541,0,0,1,24.888,254.719Z" transform="translate(-17.449 -213.155)" style="fill: #f65d2a"/>
  <path d="M85.416,225.462a7.482,7.482,0,0,0-6.622-3.984H69.333a1,1,0,0,0-1,1v13.155h-.325v-15.5H79.775a7.847,7.847,0,0,1,6.914,4.126l6.132,11.371H90.807Z" transform="translate(-17.449 -213.155)" style="fill: #f67f28"/>
  <path d="M68.008,237.633H94.624a2.277,2.277,0,0,1,1.6.662l2.509,2.509a2.277,2.277,0,0,1,.662,1.6v1.289H68.008Z" transform="translate(-17.449 -213.155)" style="fill: #f67f28"/>
  <path d="M99.395,245.692v4.488H97.053a4.528,4.528,0,0,0-4.04,2.514,10.008,10.008,0,0,0-5.665-7Z" transform="translate(-17.449 -213.155)" style="fill: #f65d2a"/>
  <path d="M93.293,257.258h-.377c.04-.157.088-.312.12-.471A4.54,4.54,0,0,0,93.293,257.258Z" transform="translate(-17.449 -213.155)" style="fill: #c5c9ff"/>
  <path d="M83.259,261.518a6.733,6.733,0,1,0-6.732-6.733A6.741,6.741,0,0,0,83.259,261.518Zm0-3.111a3.622,3.622,0,1,1,3.621-3.621A3.625,3.625,0,0,1,83.259,258.406Z" transform="translate(-17.449 -213.155)" style="fill: #f67f28"/>
  <path d="M97.053,252.181h4.653a1.393,1.393,0,0,1,1.392,1.392v2.294a1.393,1.393,0,0,1-1.392,1.392H97.053a2.539,2.539,0,1,1,0-5.077Z" transform="translate(-17.449 -213.155)" style="fill: #f65d2a"/>
  <path d="M83.649,226.4l4.895,9.233H70.333V223.478h8.461A5.484,5.484,0,0,1,83.649,226.4Z" transform="translate(-17.449 -213.155)" style="fill: #fff9cc"/>
  <path d="M69.067,218.136H68.008v-3.98a1,1,0,0,0-1-1H20.972a1,1,0,0,0-1,1v36.152a3.388,3.388,0,0,0-2.522,3.265v2.294a3.4,3.4,0,0,0,3.392,3.392H28.59a8.709,8.709,0,0,0,14.973,0h.679a1.048,1.048,0,0,0,.106.022.989.989,0,0,0,.147-.022H75.773a8.708,8.708,0,0,0,14.973,0h.68a1.076,1.076,0,0,0,.106.022,1,1,0,0,0,.147-.022h10.028a3.4,3.4,0,0,0,3.392-3.392v-2.294a3.4,3.4,0,0,0-3.392-3.392h-.311v-1.3a3,3,0,0,0,2-2.815v-1.506a3,3,0,0,0-.055-.541.988.988,0,0,0,.692.3,1.014,1.014,0,0,0,.187-.018l3.637-.687a1,1,0,1,0-.371-1.965l-3.637.688a.988.988,0,0,0-.793.871,2.994,2.994,0,0,0-1.727-1.478,4.281,4.281,0,0,0-1.18-2.337l-2.509-2.509a4.277,4.277,0,0,0-2.517-1.2l-6.671-12.37a9.844,9.844,0,0,0-8.674-5.177H78.642m-49.3,36.649a6.733,6.733,0,1,1,6.733,6.733A6.741,6.741,0,0,1,29.344,254.785Zm-3.235,2.473c.083-.122.142-.26.213-.39.028.131.064.261.1.39Zm-3.76-7.077h-.377v-4.488H31.989a10.007,10.007,0,0,0-5.645,6.919A4.525,4.525,0,0,0,22.349,250.181Zm0,2a2.539,2.539,0,1,1,0,5.077H20.841a1.393,1.393,0,0,1-1.392-1.392v-2.294a1.393,1.393,0,0,1,1.392-1.392Zm43.659-16.548H21.972V215.155H66.008v20.477Zm0,8.06H21.972v-6.06H66.008Zm0,13.565H45.733a9.915,9.915,0,0,0-5.568-11.565H66.008v11.565Zm2-11.565H79.171a9.923,9.923,0,0,0-5.57,11.565H68.008V245.692Zm24.813-10.06H90.807l-5.391-10.171a7.482,7.482,0,0,0-6.622-3.984H69.333a1,1,0,0,0-1,1v13.155h-.325v-15.5H79.775a7.847,7.847,0,0,1,6.914,4.126ZM78.794,223.478a5.484,5.484,0,0,1,4.855,2.922l4.895,9.233H70.333V223.478Zm20.6,20.215H68.008v-6.06H94.624a2.277,2.277,0,0,1,1.6.662l2.509,2.509a2.277,2.277,0,0,1,.662,1.6v1.289Zm-4.881,11.026a2.541,2.541,0,0,1,2.539-2.538h4.653a1.393,1.393,0,0,1,1.392,1.392v2.294a1.393,1.393,0,0,1-1.392,1.392H97.053A2.542,2.542,0,0,1,94.514,254.719Zm-1.6,2.539c.04-.157.088-.312.12-.471a4.54,4.54,0,0,0,.257.471Zm-5.568-11.565H99.395v4.488H97.053a4.528,4.528,0,0,0-4.04,2.514A10.008,10.008,0,0,0,87.347,245.692Zm-4.088,15.825a6.733,6.733,0,1,1,6.733-6.733A6.741,6.741,0,0,1,83.259,261.518Z" transform="translate(-17.449 -213.155)" style="fill: #313a4c"/>
  <path d="M83.259,258.406a3.622,3.622,0,1,0-3.621-3.621A3.625,3.625,0,0,0,83.259,258.406Zm0-2a1.622,1.622,0,1,1,1.621-1.621A1.623,1.623,0,0,1,83.259,256.406Z" transform="translate(-17.449 -213.155)" style="fill: #313a4c"/>
  <path d="M32.455,254.785a3.622,3.622,0,1,0,3.622-3.622A3.626,3.626,0,0,0,32.455,254.785Zm2,0a1.622,1.622,0,1,1,1.622,1.621A1.624,1.624,0,0,1,34.455,254.785Z" transform="translate(-17.449 -213.155)" style="fill: #313a4c"/>
  <path d="M104.426,246.5a1,1,0,0,1,0-2h3.342a1,1,0,1,1,0,2Z" transform="translate(-17.449 -213.155)" style="fill: #313a4c"/>
  <path d="M103.165,247.283a1,1,0,0,1,1.227-.705l3.276.884a1,1,0,0,1-.522,1.932l-3.276-.884A1,1,0,0,1,103.165,247.283Z" transform="translate(-17.449 -213.155)" style="fill: #313a4c"/>
  <path d="M83.259,258.406a3.614,3.614,0,0,0,3.6-3.371c.006.084.025.164.025.25a1.232,1.232,0,0,1-.014.141c0,.048.014.092.014.14a1.068,1.068,0,0,1-.011.11c0,.037.011.072.011.109s-.007.063-.01.094.01.062.01.094a1.035,1.035,0,0,1-.014.141,1.225,1.225,0,0,1,.014.14.395.395,0,0,0,0,.156c0,.011,0,.021,0,.031s0,.021,0,.031a.55.55,0,0,0,0,.219c0,.037-.01.072-.011.109a.806.806,0,0,1,.011.11,3.621,3.621,0,0,1-7.242,0,.806.806,0,0,1,.011-.11c0-.037-.011-.072-.011-.109a.55.55,0,0,0,0-.219c0-.011,0-.021,0-.031s0-.02,0-.031a.39.39,0,0,0,0-.156,1.2,1.2,0,0,1,.014-.14,1.035,1.035,0,0,1-.014-.141c0-.032.007-.062.01-.094s-.01-.062-.01-.094.01-.072.011-.109a1.1,1.1,0,0,1-.011-.11c0-.048.012-.093.014-.14a1.21,1.21,0,0,1-.014-.141c0-.086.02-.166.025-.25A3.614,3.614,0,0,0,83.259,258.406Z" transform="translate(-17.449 -213.155)" style="fill: #fff"/>
  <path d="M83.259,253.163a1.615,1.615,0,0,1,1.2,2.7,1.534,1.534,0,0,0-2.4,0,1.614,1.614,0,0,1,1.2-2.7Z" transform="translate(-17.449 -213.155)" style="fill: #fff"/>
  <path d="M36.077,258.406a3.614,3.614,0,0,0,3.6-3.371c.006.084.025.164.025.25a1.21,1.21,0,0,1-.014.141c0,.048.014.092.014.14a1.068,1.068,0,0,1-.011.11c0,.037.011.072.011.109s-.007.063-.01.094.01.062.01.094a1.019,1.019,0,0,1-.014.141,1.2,1.2,0,0,1,.014.14.395.395,0,0,0,0,.156c0,.011,0,.021,0,.031s0,.021,0,.031a.55.55,0,0,0,0,.219c0,.037-.01.072-.011.109a.806.806,0,0,1,.011.11,3.622,3.622,0,0,1-7.243,0,.809.809,0,0,1,.011-.11c0-.037-.011-.072-.011-.109a.55.55,0,0,0,0-.219c0-.011,0-.021,0-.031s0-.02,0-.031a.395.395,0,0,0,0-.156,1.2,1.2,0,0,1,.014-.14,1.019,1.019,0,0,1-.014-.141c0-.032.007-.062.01-.094s-.01-.062-.01-.094.01-.072.011-.109-.011-.072-.011-.11.012-.093.014-.14a1.214,1.214,0,0,1-.014-.141c0-.086.02-.166.025-.25A3.615,3.615,0,0,0,36.077,258.406Z" transform="translate(-17.449 -213.155)" style="fill: #fff"/>
  <path d="M36.077,253.163a1.614,1.614,0,0,1,1.2,2.7,1.535,1.535,0,0,0-2.4,0,1.614,1.614,0,0,1,1.2-2.7Z" transform="translate(-17.449 -213.155)" style="fill: #fff"/>
  <path d="M78.794,225.6H70.333v-2.125h8.461a5.484,5.484,0,0,1,4.855,2.922l4.895,9.233H87.417l-3.768-7.108A5.484,5.484,0,0,0,78.794,225.6Z" transform="translate(-17.449 -213.155)" style="fill: #ffcb92"/>
  <path d="M90.205,237.633h4.419a2.277,2.277,0,0,1,1.6.662l2.509,2.509a2.277,2.277,0,0,1,.662,1.6v1.289H99.2a2.193,2.193,0,0,0-.472-.764l-2.509-2.509a2.277,2.277,0,0,0-1.6-.662H68.008v-2.125h22.2Z" transform="translate(-17.449 -213.155)" style="fill: #f65d2a"/>
  <path d="M76.139,247.817H68.008v-2.125H79.171A10.037,10.037,0,0,0,76.139,247.817Z" transform="translate(-17.449 -213.155)" style="fill: #fff"/>
  <path d="M86.69,223.973l6.132,11.371H91.675L86.69,226.1a7.782,7.782,0,0,0-2.985-3.06,7.466,7.466,0,0,0-4.91-1.849H69.333a.985.985,0,0,0-.956.783h-.369v-2.125H79.775A7.847,7.847,0,0,1,86.69,223.973Z" transform="translate(-17.449 -213.155)" style="fill: #f65d2a"/>
  <path d="M103.1,253.572V255.7a1.393,1.393,0,0,0-1.392-1.392H97.053a2.52,2.52,0,0,0-2.29,1.49,2.511,2.511,0,0,1-.249-1.077,2.541,2.541,0,0,1,2.539-2.538h4.653A1.393,1.393,0,0,1,103.1,253.572Z" transform="translate(-17.449 -213.155)" style="fill: #fff"/>
  <polyline points="31.635 4.125 4.522 4.125 4.522 2 48.559 2 48.559 4.125 46.772 4.125" style="fill: #f65d2a"/>
  <path d="M21.972,245.692H31.989a10.01,10.01,0,0,0-3.021,2.125h-7Z" transform="translate(-17.449 -213.155)" style="fill: #fff"/>
  <rect x="4.522" y="24.478" width="44.036" height="2.125" style="fill: #f65d2a"/>
  <path d="M83.259,248.052a6.691,6.691,0,0,1,6.635,7.831,6.71,6.71,0,0,0-13.27,0,6.691,6.691,0,0,1,6.635-7.831Z" transform="translate(-17.449 -213.155)" style="fill: #f65d2a"/>
  <path d="M20.841,252.181h1.508a2.541,2.541,0,0,1,2.539,2.538,2.512,2.512,0,0,1-.248,1.077,2.52,2.52,0,0,0-2.29-1.49H20.841a1.393,1.393,0,0,0-1.392,1.392v-2.125A1.393,1.393,0,0,1,20.841,252.181Z" transform="translate(-17.449 -213.155)" style="fill: #fff"/>
  <path d="M36.077,248.052a6.692,6.692,0,0,1,6.635,7.831,6.711,6.711,0,0,0-13.27,0,6.691,6.691,0,0,1,6.636-7.831Z" transform="translate(-17.449 -213.155)" style="fill: #f65d2a"/>
  <path d="M99.395,247.817H90.371a10.026,10.026,0,0,0-3.024-2.125H99.395Z" transform="translate(-17.449 -213.155)" style="fill: #fff"/>
  <path d="M40.165,245.692H66.008v2.125H43.2A10.038,10.038,0,0,0,40.165,245.692Z" transform="translate(-17.449 -213.155)" style="fill: #fff"/>
</svg>
