<svg id="Layer_1" data-name="Layer 1" xmlns="http://www.w3.org/2000/svg" width="66.681" height="70.78" viewBox="0 0 66.681 70.78">
  <title>intro-bubble</title>
  <g>
    <path d="M437.331,251.641a.636.636,0,0,0,.5-.245c6.294-7.813,16.942-23.479,16.942-32.648a17.448,17.448,0,0,0-34.9,0c0,11.285,15.206,30.494,16.94,32.647A.64.64,0,0,0,437.331,251.641Zm-13.3-32.893a13.3,13.3,0,1,1,13.3,13.3A13.314,13.314,0,0,1,424.032,218.749Z" transform="translate(-403.99 -199.301)" style="fill: #f67f28"/>
    <rect x="2" y="63.492" width="62.681" height="5.288" style="fill: #f67f28"/>
    <path d="M454.168,244.573h-8.809c-2.154,3.142-4.071,5.667-5.165,7.068h6.468a1,1,0,0,1,0,2H428a1,1,0,0,1,0-2h6.464c-1.2-1.524-3.1-4.018-5.2-7.068h-8.775l-13.382,16.22H467.55Z" transform="translate(-403.99 -199.301)" style="fill: #f67f28"/>
    <path d="M450.629,218.749a13.3,13.3,0,1,0-13.3,13.3A13.314,13.314,0,0,0,450.629,218.749Zm-24.6,0a11.3,11.3,0,1,1,11.3,11.3A11.311,11.311,0,0,1,426.032,218.749Z" transform="translate(-403.99 -199.301)" style="fill: #313a4c"/>
    <path d="M470.671,269.081v-7.288c0-.016-.008-.029-.009-.045a.986.986,0,0,0-.066-.328l0-.018a.994.994,0,0,0-.148-.244l-15.031-18.22a1,1,0,0,0-.772-.364H446.7c4.775-7.24,10.075-16.846,10.075-23.825a19.448,19.448,0,0,0-38.9,0c0,7.047,5.232,16.566,10.036,23.825h-7.9a1,1,0,0,0-.771.364l-15.031,18.22a.989.989,0,0,0-.148.245l0,.017a.982.982,0,0,0-.066.329c0,.016-.009.029-.009.045v7.288a1,1,0,0,0,1,1h64.681A1,1,0,0,0,470.671,269.081Zm-50.788-50.333a17.448,17.448,0,0,1,34.9,0c0,9.168-10.648,24.835-16.942,32.648a.645.645,0,0,1-1.013,0C435.089,249.242,419.883,230.034,419.883,218.749Zm.61,25.825h8.775c2.1,3.049,4,5.544,5.2,7.068H428a1,1,0,0,0,0,2h18.661a1,1,0,0,0,0-2h-6.468c1.094-1.4,3.012-3.926,5.165-7.068h8.809l13.382,16.22H407.111Zm48.178,23.508H405.99v-5.288h62.681Z" transform="translate(-403.99 -199.301)" style="fill: #313a4c"/>
    <path d="M437.33,232.864A13.3,13.3,0,0,1,424.074,220.4c-.017.277-.042.552-.042.833,0,.092.012.18.014.271s-.014.179-.014.271v.042c0,.084.011.166.013.25s-.013.166-.013.25a13.3,13.3,0,1,0,26.6,0c0-.084-.011-.166-.013-.25s.013-.166.013-.25v-.042c0-.091-.012-.18-.014-.271s.014-.179.014-.271c0-.281-.025-.556-.042-.833A13.3,13.3,0,0,1,437.33,232.864Z" transform="translate(-403.99 -199.301)" style="fill: #f65d2a"/>
    <path d="M427,254.308a.7.7,0,0,1,0,.542c0,.007,0,.013,0,.021s0,.013,0,.021a.644.644,0,0,1,0,.5,1,1,0,0,0,1,1h18.661a1,1,0,0,0,1-1,.646.646,0,0,1,0-.5c0-.007,0-.013,0-.021s0-.013,0-.021a.7.7,0,0,1,0-.542.984.984,0,0,0-.48-.833.973.973,0,0,1-.52.167H428a.973.973,0,0,1-.52-.167A.984.984,0,0,0,427,254.308Z" transform="translate(-403.99 -199.301)" style="fill: #f65d2a"/>
    <path d="M407.111,260.793h2.269l11.113-13.47h8.775c1.12,1.627,2.169,3.073,3.1,4.318h2.1c-1.2-1.524-3.1-4.018-5.2-7.068h-8.775Z" transform="translate(-403.99 -199.301)" style="fill: #f65d2a"/>
    <path d="M454.168,247.323l11.113,13.47h2.269l-13.382-16.22h-8.809c-2.154,3.142-4.071,5.667-5.165,7.068h2.088c.908-1.226,1.958-2.684,3.078-4.318Z" transform="translate(-403.99 -199.301)" style="fill: #f65d2a"/>
    <rect x="2" y="63.492" width="62.681" height="2.75" style="fill: #f65d2a"/>
    <path d="M437.33,204.051A17.444,17.444,0,0,1,454.691,220.2a13.82,13.82,0,0,0,.087-1.447,17.448,17.448,0,0,0-34.9,0,14.4,14.4,0,0,0,.087,1.46A17.442,17.442,0,0,1,437.33,204.051Z" transform="translate(-403.99 -199.301)" style="fill: #fff"/>
  </g>
</svg>
