<svg id="Layer_1" data-name="Layer 1" xmlns="http://www.w3.org/2000/svg" width="70.335" height="68.911" viewBox="0 0 70.335 68.911">
  <title>intro-2-bubbles</title>
  <g>
    <path d="M287.57,33.179a6.585,6.585,0,0,0-6.577,6.578c0,3.278,3.486,8.826,6.577,12.727,2.557-3.236,6.578-9.243,6.578-12.727A6.585,6.585,0,0,0,287.57,33.179Zm0,11.448a4.871,4.871,0,1,1,4.871-4.871A4.876,4.876,0,0,1,287.57,44.627Z" transform="translate(-277.379 -31.179)" style="fill: #f67f28"/>
    <path d="M326.909,96.583a.688.688,0,0,0,.544-.264,134.764,134.764,0,0,0,8.281-11.553.977.977,0,0,1,.29-.458c4.7-7.428,8.851-15.765,8.851-21.571a17.967,17.967,0,1,0-35.934,0c0,11.618,15.64,31.369,17.423,33.583A.689.689,0,0,0,326.909,96.583ZM313.264,62.737a13.644,13.644,0,1,1,13.644,13.644A13.66,13.66,0,0,1,313.264,62.737Z" transform="translate(-277.379 -31.179)" style="fill: #f65d2a"/>
    <path d="M340.553,62.737a13.644,13.644,0,1,0-13.644,13.644A13.66,13.66,0,0,0,340.553,62.737Zm-25.289,0a11.644,11.644,0,1,1,11.644,11.644A11.658,11.658,0,0,1,315.264,62.737Z" transform="translate(-277.379 -31.179)" style="fill: #313a4c"/>
    <path d="M287.57,34.886a4.871,4.871,0,1,0,4.871,4.871A4.876,4.876,0,0,0,287.57,34.886Zm0,7.741a2.871,2.871,0,1,1,2.871-2.871A2.873,2.873,0,0,1,287.57,42.627Z" transform="translate(-277.379 -31.179)" style="fill: #313a4c"/>
    <path d="M305.086,55.916l-.006.008c-.576,1.022-4.842,1.415-7.665,1.676-4.351.4-7.063.72-7.946,2.154a1.563,1.563,0,0,0-.07,1.569c1.219,2.355,11.463,3.381,17.718,3.793a31.728,31.728,0,0,0,2,7.108,122.936,122.936,0,0,0-19.245.582c-5.982.625-9.423,2.61-9.205,5.31.266,3.3,6.584,6.3,18.145,5.64a74.094,74.094,0,0,1,16.769.857,142.539,142.539,0,0,0,8.9,12.544q-1.782.054-3.643.1c-5.046.126-10.263.256-15.517.84a1,1,0,0,0,.109,1.994.957.957,0,0,0,.111-.006c5.169-.574,10.343-.7,15.346-.828,8.845-.221,16.484-.411,21.688-2.955,3.781-1.849,5.7-4.672,5.006-7.367-.742-2.885-4.2-4.715-9.018-4.9,4.264-6.913,8.32-15.112,8.32-21.3a19.967,19.967,0,1,0-39.934,0c0,.119.011.242.013.362-6.588-.456-13.861-1.509-15.521-2.5,1-.529,4.177-.822,6.165-1.006,4.365-.4,8.134-.75,9.225-2.687a1.86,1.86,0,0,0-.012-2.024c-1.4-2.115-9.642-2.2-17.179-1.8,2.019-2.642,6.515-9.008,6.515-13.328a8.578,8.578,0,1,0-17.155,0c0,4.467,4.8,11.116,6.708,13.581-3.081.23-5.771.5-7.429.678A1,1,0,1,0,278.487,56C290.272,54.732,303.623,54.406,305.086,55.916Zm-6.393,25.843c-10.924.632-15.91-2.216-16.039-3.8-.076-.951,1.836-2.577,7.419-3.16a115.573,115.573,0,0,1,19.654-.525.973.973,0,0,0,.228-.024,78.457,78.457,0,0,0,4.249,8.116A79.438,79.438,0,0,0,298.694,81.759Zm46.943,7.673c.443,1.721-1.069,3.665-3.948,5.072-3.1,1.514-7.285,2.128-12.17,2.433,1.347-1.707,4.514-5.84,7.781-10.913C342.406,85.895,345.169,87.615,345.637,89.432ZM326.909,44.77a17.987,17.987,0,0,1,17.967,17.967c0,5.806-4.151,14.143-8.851,21.571a.977.977,0,0,0-.29.458,134.764,134.764,0,0,1-8.281,11.554.693.693,0,0,1-1.088,0c-1.783-2.214-17.423-21.965-17.423-33.583A17.987,17.987,0,0,1,326.909,44.77Zm-45.916-5.013a6.578,6.578,0,1,1,13.155,0c0,3.484-4.021,9.491-6.578,12.727C284.479,48.583,280.993,43.035,280.993,39.757Z" transform="translate(-277.379 -31.179)" style="fill: #313a4c"/>
    <path d="M326.909,76.381a13.651,13.651,0,0,1-13.6-12.811c-.017.277-.042.552-.042.833,0,.091.012.18.014.271s-.014.179-.014.271v.042c0,.084.011.166.013.25s-.013.165-.013.25a13.644,13.644,0,1,0,27.289,0c0-.085-.011-.166-.013-.25s.013-.166.013-.25v-.042c0-.091-.012-.18-.014-.271s.014-.179.014-.271c0-.281-.025-.556-.042-.833A13.651,13.651,0,0,1,326.909,76.381Z" transform="translate(-277.379 -31.179)" style="fill: #f67f28"/>
    <path d="M287.57,44.627a4.869,4.869,0,0,1-4.786-4.037,4.84,4.84,0,0,0-.084.833c0,.093.022.179.027.271s-.027.178-.027.271l0,.021,0,.021c0,.086.021.165.025.25s-.025.164-.025.25a4.871,4.871,0,0,0,9.741,0c0-.086-.021-.166-.025-.25s.025-.164.025-.25l0-.021,0-.021c0-.093-.022-.179-.027-.271s.027-.178.027-.271a4.86,4.86,0,0,0-.084-.833A4.87,4.87,0,0,1,287.57,44.627Z" transform="translate(-277.379 -31.179)" style="fill: #f65d2a"/>
    <path d="M283.246,37.563a4.831,4.831,0,0,1,8.648,0,6.577,6.577,0,0,1,2.091,3.526,6.349,6.349,0,0,0,.163-1.332,6.578,6.578,0,1,0-13.155,0,6.416,6.416,0,0,0,.161,1.346A6.575,6.575,0,0,1,283.246,37.563Z" transform="translate(-277.379 -31.179)" style="fill: #fff"/>
    <path d="M326.909,44.77a17.987,17.987,0,0,0-17.967,17.967c0,.475.035.969.085,1.47a17.924,17.924,0,0,1,35.761-.021,14.178,14.178,0,0,0,.087-1.449A17.987,17.987,0,0,0,326.909,44.77Z" transform="translate(-277.379 -31.179)" style="fill: #fff"/>
  </g>
</svg>
