<svg xmlns="http://www.w3.org/2000/svg" viewBox="0 0 48 77.08" width="48" height="77">
  <defs>
    <style>
      .cls-1 {
        fill: #4bcddf;
      }

      .cls-2 {
        fill: #fff;
      }
    </style>
  </defs>
  <title>map-bubble-blue</title>
  <g id="Layer_2" data-name="Layer 2">
    <g id="Layer_1-2" data-name="Layer 1">
      <path class="cls-1" d="M24,0A24,24,0,0,0,0,24C0,37.19,24,77.08,24,77.08S48,37.19,48,24A24,24,0,0,0,24,0Z"/>
      <path class="cls-2" d="M31.83,23.66a12.82,12.82,0,0,1,2.06.89,6,6,0,0,1,1.61,1.27,5.42,5.42,0,0,1,1,1.83,7.73,7.73,0,0,1,.38,2.54,7.8,7.8,0,0,1-1.1,4.26A8.58,8.58,0,0,1,33,37.22a12.46,12.46,0,0,1-3.93,1.51,21.71,21.71,0,0,1-4.44.46A28.27,28.27,0,0,1,21.09,39q-1.71-.22-3.13-.51a24.84,24.84,0,0,1-2.43-.62q-1-.32-1.44-.49V16.92H11.57V12H12a21.07,21.07,0,0,0,2.84-.19l2.79-.38,2.87-.38a23.81,23.81,0,0,1,3-.19,20.43,20.43,0,0,1,3.75.35,9.67,9.67,0,0,1,3.35,1.27A7.05,7.05,0,0,1,33.07,15,7.85,7.85,0,0,1,34,19a5.63,5.63,0,0,1-.24,1.75A6.51,6.51,0,0,1,33.17,22a5.68,5.68,0,0,1-.7.94Q32.1,23.33,31.83,23.66ZM24.65,34.5q1,0,2.31-.13a9.53,9.53,0,0,0,2.52-.59,5.54,5.54,0,0,0,2-1.32,3.21,3.21,0,0,0,.83-2.32,2.45,2.45,0,0,0-.67-1.81,4.36,4.36,0,0,0-1.66-1,9.91,9.91,0,0,0-2.12-.49q-1.13-.13-2-.19a12.71,12.71,0,0,1-1.66.05v-5H26q.59-.05,1.23-.16a3.37,3.37,0,0,0,1.15-.4,2.26,2.26,0,0,0,.83-.86,3,3,0,0,0,.32-1.48,2.51,2.51,0,0,0-.51-1.65,3.2,3.2,0,0,0-1.34-.94,6.51,6.51,0,0,0-1.85-.4q-1-.08-2-.08a18.33,18.33,0,0,0-2.25.16q-1.29.16-2.84.32V33.75q1.39.22,2.92.49A16.78,16.78,0,0,0,24.65,34.5Z"/>
    </g>
  </g>
</svg>
