<svg xmlns="http://www.w3.org/2000/svg" viewBox="0 0 67.99 62.77">
  <defs>
    <style>
      .cls-1 {
        fill: #4bcddf;
        fill-rule: evenodd;
      }
    </style>
  </defs>
  <title>play-bg</title>
  <g id="Layer_2" data-name="Layer 2">
    <g id="Layer_1-2" data-name="Layer 1">
      <path class="cls-1" d="M6.56,9.22c8.4-1.28,17-5.05,25.86-7.53A51.28,51.28,0,0,1,39.16.3C40.3.16,41.45.06,42.6,0a31.36,31.36,0,0,1,3.49.07A33.83,33.83,0,0,1,60.61,4.89C63.29,6.64,65.5,12.52,66,16.78s1.17,8.29,1.58,12.53c.21,2.12.35,4.32.37,6.69q0,.89,0,1.82t-.06,1.89c-.06,1.29-.15,2.63-.28,4-.58,5.84-3.93,12.37-6.3,12.65C52.25,57.72,43,60.67,33.58,62.06a66.16,66.16,0,0,1-7.12.67q-1.79.07-3.59,0t-3.62-.25a44.4,44.4,0,0,1-14.57-4.2c-1.3-.69-2.48-2.4-3.33-4.51A19.5,19.5,0,0,1,0,46.69,281,281,0,0,1,1.31,18.32c.54-4.78,3-8.7,5.25-9.09Z"/>
    </g>
  </g>
</svg>
