<svg xmlns="http://www.w3.org/2000/svg" viewBox="0 0 303 456" fill="#e7f1f4" preserveAspectRatio="none">
   <path d="M0,0V456H303V0ZM297,176.94c-.36,16.79-.88,33.57-1.47,50.36-2.36,67.16-5.66,134.46-4.29,202.3.11,5.52-5.88,11-13.46,12.17A884.76,884.76,0,0,1,153,451.49q-3.91,0-7.81,0t-7.81-.07q-7.81-.11-15.62-.37-15.62-.53-31.22-1.68-31.2-2.31-62.32-7.25c-7.58-1.23-14.36-6.78-15.07-12.2A997.89,997.89,0,0,1,6,330.32c-.43-16.58-.55-33.18-.48-49.83q0-6.24.09-12.49t.15-12.52q.18-12.53.46-25.11c1.51-67.1,4.07-135.66,3.67-207.09,0-5.82,6.36-11.36,14.31-12.22a1115.91,1115.91,0,0,1,128.93-6.5q4,0,7.93.1t7.92.16q7.91.19,15.78.5,15.75.62,31.39,1.73,31.29,2.23,62.24,6.52c7.56,1.07,14.14,6.52,14.66,12,3.08,33.76,4.3,67.39,4.44,101C297.56,143.37,297.36,160.16,297,176.94Z"/>
</svg>
