<svg xmlns="http://www.w3.org/2000/svg" viewBox="0 0 26.7 36.79">
  <defs>
    <style>
      .cls-1, .cls-2, .cls-3, .cls-4 {
        fill: none;
        stroke: #282828;
        stroke-linecap: round;
        stroke-linejoin: round;
      }

      .cls-1 {
        stroke-width: 1.42px;
      }

      .cls-2 {
        stroke-width: 1.42px;
      }

      .cls-3 {
        stroke-width: 1.42px;
      }

      .cls-4 {
        stroke-width: 1.42px;
      }
    </style>
  </defs>
  <title>cat-5</title>
  <g id="Layer_2" data-name="Layer 2">
    <g id="Layer_1-2" data-name="Layer 1">
      <path class="cls-1" d="M2.64.72H24.06A1.94,1.94,0,0,1,26,2.66V30a1.94,1.94,0,0,1-1.93,1.93H2.64A1.94,1.94,0,0,1,.71,30V2.66A1.94,1.94,0,0,1,2.64.72Z"/>
      <path class="cls-2" d="M13.05,23.44c-4.21-9.75-12.55.67,0,0h0c9.79-.26,3.62-7.16.35-1.13-.1.19-.28.92-.35,1.13Z"/>
      <path class="cls-3" d="M13.93,29.37c-3.18-2.84-1.64-4.81-.84-7.32.51-1.63,0-4.27,0-4.87.31,0,.84-.07.86-.33s-.5-.8-.76-1.15c3.21-.19,4.88-3,5.18-5.94a5.28,5.28,0,0,0-.51-3.09l-.22-.36a4.33,4.33,0,0,0-3.5-1.75C11.54,4.45,9.25,6,8.92,9.35c-.32,3.12,1.69,5.92,4,6.37-.21.33-.77.86-.78,1.09s.65.35.94.37m.76-10.94a2.87,2.87,0,0,1,1.9,1.18l.06.1,0,.08a4.33,4.33,0,0,1,.43,2.5"/>
      <path class="cls-4" d="M2.64.83,24.06.71A2.41,2.41,0,0,1,26,3V34.46A1.58,1.58,0,0,1,24.06,36L2.64,32.29A2.41,2.41,0,0,1,.71,30V2.42A1.58,1.58,0,0,1,2.64.83Z"/>
    </g>
  </g>
</svg>
